<svg width="296" height="180" viewBox="0 0 296 180" fill="none" xmlns="http://www.w3.org/2000/svg">
<g clip-path="url(#clip0)">
<path d="M54.2876 57.3585C24.2829 57.3585 0 81.4076 0 111.123C0 133.238 13.537 152.311 32.7959 160.466H75.9189C95.1777 152.173 108.715 133.238 108.715 111.123C108.715 81.4076 84.2923 57.3585 54.2876 57.3585Z" fill="#BFB9DC"/>
<path d="M39.0758 47.5453H32.5166V62.0577H39.0758V47.5453Z" fill="#BFB9DC"/>
<path d="M31.54 48.0982C31.54 48.2364 31.6796 56.5292 30.9818 68.5538H39.7739C39.0761 56.6674 39.2156 48.3746 39.2156 48.0982H40.7508V42.4315H38.3783L36.4245 37.7322V35.5208C36.0058 35.5208 35.5872 35.5208 35.1685 35.5208C35.0289 35.5208 34.8894 35.5208 34.7498 35.5208V38.0087L32.796 42.4315H30.0049V48.0982H31.54ZM36.1454 48.9275H37.5409C37.5409 49.895 37.5409 51.5536 37.5409 53.9032H36.1454V48.9275ZM36.1454 55.4235H37.5409C37.5409 56.9439 37.6805 58.6024 37.6805 60.5374H36.1454V55.4235ZM36.1454 62.0578H37.8201C37.8201 63.7163 37.9596 65.3749 38.0992 67.1717H36.2849V62.0578H36.1454ZM33.0751 48.9275H34.4707V53.9032H33.0751C33.2147 51.5536 33.2147 49.7568 33.0751 48.9275ZM33.0751 55.4235H34.4707V60.5374H32.9356C33.0751 58.6024 33.0751 56.9439 33.0751 55.4235ZM32.9356 62.0578H34.6103V67.1717H32.796C32.796 65.3749 32.796 63.7163 32.9356 62.0578Z" fill="#6967AF"/>
<path d="M60.9863 94.9525C60.9863 95.5054 61.405 95.92 61.9632 95.92C62.5215 95.92 62.9402 95.5054 62.9402 94.9525C62.9402 94.3997 62.5215 93.985 61.9632 93.985C61.405 93.985 60.9863 94.3997 60.9863 94.9525Z" fill="white"/>
<path d="M11.0254 97.164C11.0254 97.7168 11.4441 98.1315 12.0023 98.1315C12.5605 98.1315 12.9792 97.7168 12.9792 97.164C12.9792 96.6111 12.5605 96.1965 12.0023 96.1965C11.4441 96.1965 11.0254 96.6111 11.0254 97.164Z" fill="white"/>
<path d="M21.6309 77.123C21.6309 77.5376 22.0495 77.9523 22.4682 77.9523C22.8869 77.9523 23.3055 77.5376 23.3055 77.123C23.3055 76.7083 22.8869 76.2937 22.4682 76.2937C21.91 76.2937 21.6309 76.7083 21.6309 77.123Z" fill="white"/>
<path d="M35.8662 129.091C35.8662 129.921 36.564 130.612 37.4013 130.612C38.2387 130.612 38.9365 129.921 38.9365 129.091C38.9365 128.262 38.2387 127.571 37.4013 127.571C36.564 127.571 35.8662 128.262 35.8662 129.091Z" fill="white"/>
<path d="M47.7285 91.9118C47.7285 92.4646 48.1472 93.0175 48.845 93.0175C49.5428 93.0175 49.9614 92.6029 49.9614 91.9118C49.9614 91.3589 49.5428 90.8061 48.845 90.8061C48.1472 90.8061 47.7285 91.2207 47.7285 91.9118Z" fill="white"/>
<path d="M70.0576 105.042C71.3136 105.595 72.4301 106.701 72.8488 108.083C73.407 106.701 74.3839 105.595 75.6399 105.042C74.3839 104.489 73.2674 103.384 72.8488 102.001C72.4301 103.384 71.3136 104.489 70.0576 105.042Z" fill="white"/>
<path d="M16.8867 101.172C18.1427 101.725 19.2592 102.831 19.6779 104.213C20.2361 102.831 21.213 101.725 22.469 101.172C21.213 100.619 20.0965 99.5135 19.6779 98.1314C19.2592 99.5135 18.2823 100.619 16.8867 101.172Z" fill="white"/>
<path d="M11.1645 143.742V111.262H0C0 123.563 4.1867 134.758 11.1645 143.742Z" fill="#958EC5"/>
<path d="M89.8741 139.595V136.831H90.851V135.449H89.8741V124.392H91.8279V121.489H89.8741V118.725V116.79V116.376C89.8741 115.546 89.3159 114.993 88.6181 114.993C87.9203 114.993 87.3621 115.685 87.3621 116.376V116.79H84.1522V116.376C84.1522 115.546 83.594 114.993 82.8962 114.993C82.1985 114.993 81.6402 115.685 81.6402 116.376V116.79H78.4304V116.376C78.4304 115.546 77.8722 114.993 77.1744 114.993C76.4766 114.993 75.9184 115.685 75.9184 116.376V116.79H72.7086V116.376C72.7086 115.546 72.1504 114.993 71.4526 114.993C70.7548 114.993 70.1966 115.685 70.1966 116.376V116.79H66.9868V116.376C66.9868 115.546 66.4285 114.993 65.7308 114.993C65.033 114.993 64.4747 115.685 64.4747 116.376V116.79H61.2649V116.376C61.2649 115.546 60.7067 114.993 60.0089 114.993C59.3111 114.993 58.7529 115.685 58.7529 116.376V116.79V118.725V121.489H56.9387V124.392H58.7529V135.449H57.9156V136.831H58.7529V151.205H27.6317V123.01H14.0947V147.335C24.0033 158.116 38.3776 165.027 54.2871 165.027C73.6855 165.027 90.851 154.937 100.48 139.595H89.8741ZM79.2678 135.449H78.4304V136.831H79.2678V151.205H69.6383V136.831H70.6152V135.449H69.6383V134.067C69.6383 131.026 71.7317 128.4 74.3833 128.4C77.0349 128.4 79.1282 130.888 79.1282 134.067V135.449H79.2678Z" fill="#958EC5"/>
<path d="M50.3799 70.0741C51.1507 70.0741 51.7755 69.4553 51.7755 68.692C51.7755 67.9287 51.1507 67.3099 50.3799 67.3099C49.6092 67.3099 48.9844 67.9287 48.9844 68.692C48.9844 69.4553 49.6092 70.0741 50.3799 70.0741Z" fill="white"/>
<path d="M86.2462 98.5461C86.9399 98.5461 87.5023 97.9891 87.5023 97.3021C87.5023 96.6151 86.9399 96.0582 86.2462 96.0582C85.5526 96.0582 84.9902 96.6151 84.9902 97.3021C84.9902 97.9891 85.5526 98.5461 86.2462 98.5461Z" fill="white"/>
<path d="M60.4281 142.083H57.2183C57.2183 141.945 57.0787 141.945 57.0787 141.807L56.9392 141.392H56.7996C55.404 139.595 50.1009 124.807 47.0306 115.408H51.636V112.782H46.3328C41.1692 93.0175 39.7737 71.8709 39.355 59.4317C38.7968 59.5699 38.2385 59.7081 37.6803 59.9846C37.6803 60.261 37.6803 60.3992 37.6803 60.6756H36.1452V60.5374C34.4705 61.0903 32.7958 61.7813 31.2607 62.4724C30.9816 67.5863 30.7025 73.8059 30.0047 80.5783V81.1312C29.0278 91.0825 27.3531 102.14 24.562 112.92H19.2588V115.546H23.8642C21.073 122.595 14.0952 140.839 13.6765 141.807C13.6765 141.945 13.537 142.083 13.537 142.083H10.3271V142.636C11.8623 144.709 13.3974 146.644 15.2116 148.441V147.888H18.9797V152.035C19.5379 152.449 20.0961 153.002 20.6544 153.417V147.888H23.3059C22.4686 149.823 21.6313 151.758 20.7939 153.417C21.2126 153.693 21.6313 154.108 22.0499 154.384C22.6082 153.278 23.0268 152.173 23.5851 151.067V154.384H22.1895C22.8873 154.937 23.5851 155.49 24.4224 155.905H31.9585C30.2838 156.181 28.4695 156.734 26.9344 157.425C27.4926 157.701 28.0509 158.116 28.7487 158.392C30.9816 157.563 33.2145 157.148 35.587 157.148C43.5417 157.148 50.7987 162.262 53.8689 164.888C54.148 164.888 54.4271 164.888 54.5667 164.888C55.1249 164.888 55.8227 164.888 56.3809 164.888C56.3809 164.888 56.3809 164.75 56.2414 164.75L56.66 164.888C58.0556 164.888 59.3116 164.75 60.5676 164.612L59.1721 164.059H64.0566C65.173 163.921 66.429 163.644 67.5455 163.368C68.5224 162.815 69.6388 162.401 70.6157 161.848C67.4059 157.84 63.917 153.14 60.7072 147.75V142.083H60.4281ZM62.3819 156.043L59.4512 158.392L53.5898 156.043H62.3819ZM55.5436 154.522H51.7756V147.888H55.5436V154.522ZM47.4493 147.888H50.1009V153.831C49.2635 151.896 48.2866 149.961 47.4493 147.888ZM48.7053 154.522H47.1702V151.205C47.5888 152.311 48.1471 153.417 48.7053 154.522ZM46.612 142.083L45.7746 141.807L48.8449 139.043L54.148 141.945L53.4502 142.083H46.612V142.083ZM44.7977 140.701C44.5186 139.734 44.0999 138.213 43.6813 136.278L47.4493 138.213L44.7977 140.701ZM45.4955 147.888V154.522H41.7275V147.888H45.4955ZM41.0297 118.725V120.246H40.0528C39.9132 119.693 39.9132 119.278 39.7737 118.725H41.0297ZM39.4945 117.205C39.355 116.652 39.355 116.099 39.2154 115.546H41.1692V117.205H39.4945ZM43.2626 124.392L41.3088 126.327C41.0297 125.221 40.7506 123.977 40.4714 122.733L43.2626 124.392ZM44.0999 118.725V120.246H42.7044V118.725H44.0999ZM42.7044 117.205V115.546H44.0999V117.205H42.7044ZM45.9142 121.766L44.379 123.148L42.0066 121.766H45.9142ZM44.379 133.79L46.612 131.855L49.8218 133.79H44.379ZM50.6591 135.449L48.7053 137.246L45.3559 135.449H50.6591ZM46.4724 130.059L43.8208 128.538H48.1471L46.4724 130.059ZM42.9835 126.88L44.7977 125.221L47.5888 126.88H42.9835ZM45.2164 131.026L42.9835 132.961C42.7044 131.717 42.4252 130.473 42.0066 129.091L45.2164 131.026ZM54.2876 140.286L50.1009 138.075L52.4733 136.002C53.1711 137.799 53.8689 139.181 54.2876 140.286ZM51.3569 132.961L47.868 130.888L49.9613 129.091C50.38 130.473 50.7987 131.717 51.3569 132.961ZM47.5888 122.457C48.0075 123.563 48.4262 124.807 48.7053 125.774L45.9142 123.977L47.5888 122.457ZM45.7746 118.725H46.3328C46.4724 119.278 46.7515 119.693 46.8911 120.246H45.9142V118.725H45.7746ZM44.5186 112.92H38.6572C38.3781 111.538 38.2385 110.156 37.9594 108.774H43.4021C43.8208 110.156 44.0999 111.538 44.5186 112.92ZM32.9354 117.205C33.0749 116.652 33.0749 116.099 33.2145 115.546H34.6101V117.205H32.9354ZM34.4705 118.725V120.246H32.2376C32.3771 119.693 32.3771 119.278 32.5167 118.725H34.4705ZM33.6332 112.92C33.9123 111.538 34.0518 110.156 34.3309 108.774H36.2847C36.5639 110.156 36.7034 111.538 36.9825 112.92H33.6332ZM37.5407 115.546C37.6803 116.099 37.6803 116.652 37.8199 117.205H36.1452V115.546H37.5407ZM36.1452 118.725H38.099C38.2385 119.278 38.2385 119.693 38.3781 120.246H36.1452V118.725V118.725ZM43.123 107.253H37.6803C37.4012 105.595 37.2616 103.798 36.9825 102.14H42.0066C42.4252 103.798 42.8439 105.595 43.123 107.253ZM41.867 100.619H36.9825C36.843 98.8225 36.7034 97.1639 36.5639 95.5054H41.0297C41.3088 97.1639 41.5879 98.8225 41.867 100.619ZM40.7506 93.8468H36.2847C36.1452 92.05 36.1452 90.3915 36.1452 88.7329H40.0528C40.1923 90.3915 40.4714 92.1882 40.7506 93.8468ZM36.1452 62.0578H37.8199C37.8199 63.7163 37.9594 65.3749 38.099 67.1716H36.2847V62.0578H36.1452ZM36.1452 68.692H38.099C38.2385 70.3505 38.3781 72.0091 38.5176 73.8059H36.1452V68.692ZM36.1452 75.4644H38.5176C38.6572 77.123 38.7968 78.7816 38.9363 80.5783H36.0056V75.4644H36.1452ZM36.1452 82.0987H39.2154C39.355 83.7572 39.6341 85.554 39.7737 87.2126H36.1452V82.0987V82.0987ZM35.1683 102.14H35.3078C35.4474 103.798 35.7265 105.595 36.0056 107.253H34.4705C34.7496 105.457 35.0287 103.798 35.1683 102.14ZM32.9354 62.0578H34.6101V67.1716H32.7958C32.7958 65.3749 32.7958 63.7163 32.9354 62.0578ZM32.5167 68.692H34.4705V73.8059H32.098C32.3771 72.1473 32.5167 70.3505 32.5167 68.692ZM32.098 75.4644H34.4705V80.5783H31.5398C31.8189 78.7816 31.9585 77.123 32.098 75.4644ZM31.4002 82.0987H34.4705V87.2126H30.842C31.1211 85.4158 31.2607 83.7572 31.4002 82.0987ZM30.7025 88.7329H34.6101C34.6101 90.3915 34.4705 92.05 34.4705 93.8468H30.1442C30.1442 92.1882 30.4233 90.3915 30.7025 88.7329ZM29.7256 95.3671H34.1914C34.0518 97.0257 33.9123 98.6843 33.7727 100.481H28.8882C29.1673 98.8225 29.4464 97.1639 29.7256 95.3671ZM28.6091 102.14H33.6332C33.4936 103.798 33.2145 105.457 32.9354 107.253H27.6322C27.9113 105.595 28.1904 103.798 28.6091 102.14ZM27.2135 108.774H32.6563C32.5167 110.156 32.2376 111.538 31.9585 112.92H26.2366C26.5158 111.538 26.9344 110.156 27.2135 108.774ZM26.9344 128.4L24.2828 129.92L22.4686 128.4H26.9344ZM23.3059 126.88L26.0971 125.221L27.9113 126.88H23.3059ZM26.3762 133.79H20.9335L24.1433 131.855L26.3762 133.79ZM25.3993 135.449L22.1895 137.246L20.0961 135.449H25.3993ZM26.9344 136.278C26.5158 137.66 26.2366 139.181 25.818 140.563L23.3059 138.213L26.9344 136.278ZM25.5389 131.026L28.6091 129.229C28.33 130.473 28.0509 131.717 27.7718 132.961L25.5389 131.026ZM27.4927 124.392L30.1442 122.733C29.8651 123.839 29.7256 125.083 29.4464 126.189L27.4927 124.392ZM29.3069 120.246V118.725H30.842C30.7025 119.278 30.7025 119.693 30.5629 120.246H29.3069ZM29.3069 117.205V115.546H31.5398C31.4002 116.099 31.4002 116.652 31.2607 117.205H29.3069ZM26.3762 117.205V115.546H27.7718V117.205H26.3762ZM27.6322 118.725V120.246H26.2366V118.725H27.6322ZM28.6091 121.766L26.2366 123.148L24.7015 121.766H28.6091ZM24.2828 118.725H24.562V120.246H23.7246C24.0037 119.693 24.1433 119.278 24.2828 118.725ZM23.0268 122.319L24.9806 124.116L21.6313 126.189C22.0499 124.807 22.4686 123.563 23.0268 122.319ZM20.5148 128.815L22.8873 130.888L18.7006 133.376C19.2588 131.855 19.9566 130.335 20.5148 128.815ZM17.8632 135.449L20.6544 137.937L15.9094 140.425C16.4677 139.319 17.1654 137.522 17.8632 135.449ZM24.1433 142.083H17.4446L16.7468 141.945L22.0499 139.043L25.1202 141.807L24.1433 142.083ZM29.0278 154.522H25.2597V147.888H29.0278V154.522ZM34.4705 154.522H30.7025V147.888H34.4705V154.522ZM27.2135 142.083C27.2135 141.945 27.3531 141.669 27.4927 141.254C29.3069 134.481 30.842 127.985 32.098 121.766H38.7968C41.0297 132.408 43.2626 140.701 43.5417 142.083H27.2135V142.083ZM36.1452 147.888H39.9132V154.522H36.1452V147.888ZM39.0759 156.043H49.4031C50.5195 158.254 51.636 160.327 52.7525 162.262C49.5426 159.913 44.6582 157.01 39.0759 156.043ZM54.5667 162.124C53.5898 160.466 52.7525 158.807 51.7756 156.872L58.1952 159.36L54.5667 162.124ZM56.5205 162.539L59.7303 160.051L66.1499 162.539H56.5205ZM68.2433 161.71L61.1259 158.945L64.3357 156.457C65.5917 158.392 66.9873 160.051 68.2433 161.71ZM62.9401 154.522H57.2183V147.888H58.6138C60.0094 150.238 61.5445 152.449 62.9401 154.522Z" fill="#6967AF"/>
<path d="M248.411 89.1476C223.152 89.1476 202.637 109.465 202.637 134.482C202.637 140.839 204.032 147.059 206.405 152.587H290.278C292.651 147.059 294.046 140.978 294.046 134.482C294.046 109.465 273.532 89.1476 248.411 89.1476Z" fill="#FFE4B8"/>
<path d="M210.312 159.636H286.231C289.162 155.352 291.394 150.376 292.651 145.124H285.394V108.083C284.138 106.424 282.882 104.766 281.486 103.245C281.486 103.245 281.486 103.245 281.346 103.107C280.37 102.001 279.253 101.034 278.137 100.066L277.997 99.9283C277.578 99.6518 277.299 99.2372 276.881 98.9608L273.81 105.457V145.124H245.201V143.051H247.155H252.598H254.691H262.088H263.483V138.904H268.786V127.709H263.483V110.847H262.088V109.05V107.806L259.157 105.18L258.04 104.213L255.11 101.587H254.272L251.342 104.213L250.225 105.18L247.295 107.806V110.018V110.847H245.341V133.514H242.829V123.701H217.569V131.441H214.778V143.189H203.613C204.73 149.27 207.102 154.799 210.312 159.636Z" fill="#F5B347"/>
<path d="M269.205 92.3265H267.53V139.872H269.205V92.3265Z" fill="#F5B347"/>
<path d="M244.643 156.596L248.132 153.417C248.132 153.417 256.366 155.49 256.924 155.628C257.343 155.628 264.879 153.417 264.879 153.417L265.577 156.596L267.949 139.595L263.902 136.831C263.902 136.831 252.319 137.384 251.063 138.352C249.807 139.319 244.504 150.376 244.504 150.376V156.596H244.643Z" fill="#C7C4C3"/>
<path d="M229.292 146.506C229.85 146.368 230.408 146.368 230.827 146.368C221.477 140.839 215.615 144.848 215.615 144.848C215.615 144.848 215.615 153.14 219.104 157.149L220.779 155.628L227.757 154.661L231.943 157.149L229.292 146.506Z" fill="#C7C4C3"/>
<path d="M230.687 152.035L229.292 146.644C229.85 146.506 230.408 146.506 230.827 146.506C227.757 144.709 225.105 143.88 222.872 143.604C223.57 146.506 225.105 150.929 227.896 154.661L229.152 155.352C229.85 154.661 230.269 153.417 230.687 152.035Z" fill="#B3B3B3"/>
<path d="M230.687 152.035L229.292 146.644C229.85 146.506 230.408 146.506 230.827 146.506C227.757 144.709 225.105 143.88 222.872 143.604C223.57 146.506 225.105 150.929 227.896 154.661L229.152 155.352C229.85 154.661 230.269 153.417 230.687 152.035Z" fill="#7A7775"/>
<path d="M243.108 134.758C243.108 134.758 235.432 129.091 223.012 130.612C224.407 146.783 232.222 157.149 232.222 157.149C232.222 157.149 236.688 141.254 243.108 134.758Z" fill="#F9F8F7"/>
<path d="M242.41 139.595L239.898 139.043C240.875 137.384 241.992 136.002 243.108 134.758C243.108 134.758 240.456 132.408 235.432 131.441C235.293 134.343 235.572 139.457 237.107 144.156C234.037 150.514 232.083 157.149 232.083 157.149L233.758 154.661L240.875 153.555L244.643 156.596L242.41 139.595Z" fill="#C7C4C3"/>
<path d="M267.949 138.352C262.506 128.953 252.877 120.246 242.131 117.067C239.759 122.319 238.782 128.538 238.503 134.758C238.224 143.88 239.619 149.547 244.504 156.457C247.574 146.091 255.389 141.116 267.949 138.352Z" fill="#F9F8F7"/>
<path d="M208.08 155.766C208.917 157.287 209.755 158.669 210.732 160.051C230.13 161.295 260.972 161.848 284.418 162.124C285.953 160.051 287.488 157.978 288.604 155.766H281.626H208.08Z" fill="#7A7775"/>
<path d="M242.411 159.222H233.339L232.083 157.149H208.777C216.732 170.693 231.386 179.815 248.412 179.815C264.461 179.815 278.556 171.661 286.65 159.222H242.411V159.222Z" fill="#C7C4C3"/>
<path d="M279.672 85.5541V92.4647L273.811 104.628V119.278H285.533V85.5541H284.696V92.1883H280.37V85.5541H279.672V85.5541ZM276.183 103.245H275.764V102.416L276.183 101.449V103.245ZM277.579 102.001H277.02V99.9283L277.579 98.6843V102.001ZM278.974 100.205H278.416V97.0258L278.974 95.7819V100.205ZM280.37 95.229L281.486 96.0583H280.37V95.229ZM281.347 94.8144H283.859L282.603 95.6436L281.347 94.8144ZM280.37 98.1315V97.164L281.905 98.1315H280.37ZM281.347 96.7494H283.859L282.603 97.5786L281.347 96.7494ZM284.696 98.1315H283.161L284.696 97.164V98.1315ZM284.696 95.9201H283.579L284.696 95.0908V95.9201ZM284.696 94.1233H283.579L284.696 93.294V94.1233ZM283.859 92.8794L282.603 93.7087L281.347 92.8794H283.859ZM281.486 94.1233H280.37V93.294L281.486 94.1233Z" fill="#F5B347"/>
<path d="M269.903 85.9687V80.7166H268.507V74.6352H267.949V80.7166H266.693V85.9687H265.019L265.437 91.0826H267.391V111.124H269.066V91.0826H271.159L271.578 85.9687H269.903Z" fill="#F5B347"/>
<path d="M296 131.994L285.812 148.718L272.136 150.653V140.978L296 131.994Z" fill="#7A7775"/>
<path d="M251.203 166.823C250.924 166.823 250.645 167.1 250.645 167.376C250.645 167.653 250.924 167.929 251.203 167.929H279.114C279.533 167.515 279.952 167.238 280.37 166.823H251.203V166.823Z" fill="#E0DEDC"/>
<path d="M295.303 148.994L287.209 158.254L279.114 156.596C279.114 156.596 290.279 149.685 291.674 149.547C293.07 149.409 295.303 148.994 295.303 148.994Z" fill="#7A7775"/>
<path d="M275.207 155.766L283.301 155.905L295.442 149.132C295.442 149.132 283.022 143.88 272.137 150.791C271.16 152.449 275.207 155.766 275.207 155.766Z" fill="#C7C4C3"/>
<path d="M277.718 151.62L273.531 159.222H269.345C269.345 159.222 269.205 157.01 271.298 154.661C273.531 152.311 277.718 151.62 277.718 151.62Z" fill="#7A7775"/>
<path d="M296 131.994C283.44 130.335 270.461 134.067 264.879 139.043C262.507 146.921 265.437 156.457 265.437 156.457L267.81 154.384C267.949 156.319 268.368 158.392 269.205 159.084C270.88 154.108 277.579 151.482 277.579 151.482C277.579 151.482 275.485 150.376 272.834 149.961L296 131.994Z" fill="#F9F8F7"/>
<path d="M205.847 85.8305C220.221 78.0905 225.664 60.1228 217.709 45.8868C214.36 39.6672 208.917 35.2444 202.776 32.7566C204.312 27.0898 203.893 20.8702 200.823 15.3417C194.682 4.14641 180.447 -0.1382 169.004 6.0814C166.492 7.46353 164.398 9.12209 162.584 11.0571C155.746 7.46353 147.093 7.18711 139.836 11.1953C128.113 17.5531 123.787 31.9273 130.207 43.5372C131.882 46.7161 134.254 49.3422 137.045 51.2771C131.463 58.8789 130.346 69.3831 135.231 78.2287C141.93 90.3915 157.281 94.9525 169.701 88.3183C171.655 87.2126 173.469 85.9687 175.005 84.4483C183.936 90.2533 195.799 91.2208 205.847 85.8305Z" fill="#F5D1DE"/>
<path d="M139.696 62.7488H147.093L146.535 66.3424C149.186 70.627 153.233 70.3505 157.28 71.4562C158.118 71.4562 158.955 71.318 159.792 71.1798L159.374 67.4481C160.49 68.1391 161.607 69.2448 162.863 70.3505C163.56 70.0741 164.258 69.7977 164.956 69.383C166.352 68.5538 167.747 67.7245 168.864 66.6188C175.283 70.9034 183.936 71.7327 191.193 67.7245C193.705 66.3424 195.798 64.4074 197.473 62.4724V34.8297H195.659V29.3012H192.728V25.7076H188.541V29.3012H185.61V34.8297H183.796V63.4399H172.353V44.2282H171.376C171.236 39.9436 168.864 36.3501 165.654 35.3826C162.444 36.3501 160.072 39.9436 159.932 44.2282H159.234V63.9927L157.001 47.6836V31.5126H154.908L152.675 14.927L150.861 31.5126H148.488V49.7568L148.07 55.1471H139.696V62.7488V62.7488Z" fill="#E289AE"/>
<path d="M190.076 68.1392C189.378 66.066 186.866 57.635 186.448 56.2528C183.936 46.9925 181.703 34.2769 180.168 23.2198V22.8052C179.749 20.3174 179.47 17.9677 179.191 15.6181V5.39032H178.912H178.354V1.24392H177.935C177.935 1.10571 177.935 1.10571 177.935 0.967493C177.935 0.41464 177.656 0 177.237 0C176.818 0 176.539 0.41464 176.539 0.967493C176.539 1.10571 176.539 1.24392 176.539 1.24392H176.121V5.39032H166.212V1.24392H165.793C165.793 1.10571 165.793 1.10571 165.793 0.967493C165.793 0.41464 165.514 0 165.096 0C164.677 0 164.398 0.41464 164.398 0.967493C164.398 1.10571 164.398 1.24392 164.398 1.24392H163.979V5.39032H163.281H163.002V10.366C162.165 13.9595 160.909 18.9352 158.955 24.3255V24.4638C157.839 27.3662 156.722 30.5451 155.187 33.5858C152.954 38.2851 150.303 42.9843 147.093 47.4072C146.395 48.3747 140.534 55.7 139.696 56.6675C139.836 56.9439 139.696 57.635 139.836 57.9114C140.673 56.9439 146.814 49.2039 147.511 48.2364V62.7488C147.791 63.0253 148.07 63.4399 148.209 63.7163V47.1307C149.326 45.6104 150.303 43.9518 151.28 42.4315V63.0253C151.559 63.3017 151.838 63.4399 151.977 63.7163V41.0494C153.094 39.1144 154.071 37.1794 155.048 35.3826V63.9928C155.327 64.131 155.606 63.8545 155.745 63.9928V33.724C156.862 31.2362 157.839 28.8866 158.816 26.537V64.131C159.095 64.2692 159.374 64.4074 159.513 64.5456V24.602C160.909 20.5938 162.025 16.7238 162.863 13.5449V22.9434H161.886V43.2608H160.63V64.9603C162.444 65.6513 164.258 66.2042 166.212 66.6188V59.2935H166.77V56.391H167.468V52.5211H172.492C173.469 56.6675 174.585 60.3992 175.841 63.4399V66.2042C177.795 65.7895 179.61 65.0985 181.284 64.2692V43.2608H180.586H180.028V28.6102C180.586 32.7566 181.424 37.0412 182.122 41.3258V63.9928C182.401 63.8545 182.68 63.7163 182.819 63.5781V45.1958C183.378 47.96 183.936 50.5861 184.634 53.0739V64.6838C184.913 64.5456 185.192 66.066 185.331 65.9278V56.1146C185.75 57.7732 188.402 66.4806 189.099 68.692C189.658 68.4156 189.937 68.2774 190.076 68.1392ZM166.352 22.9434V17.0002H166.631C166.91 18.797 167.189 20.8702 167.468 22.9434H166.631H166.352ZM166.491 43.2608V34.5533H167.189V31.6508H167.608V29.8541H168.305C169.003 34.1387 169.701 38.8379 170.678 43.2608H166.491V43.2608ZM171.515 43.2608C170.678 38.8379 169.841 34.4151 169.143 29.8541H174.725V31.6508H175.144V34.5533H175.841V43.2608H171.515ZM175.981 61.3667C175.144 58.8789 174.306 55.8382 173.469 52.5211H174.725V56.391H175.423V59.2935H175.981V61.3667V61.3667ZM176.26 22.9434H175.981H168.166C167.747 19.7645 167.329 16.862 167.049 14.0978H167.329V12.1628H175.144V14.0978H175.562V17.0002H176.121V22.9434H176.26ZM179.191 22.9434V21.5613C179.191 21.9759 179.33 22.3906 179.33 22.9434H179.191Z" fill="#D24681"/>
<path d="M175.981 3.87C175.981 4.28464 171.376 37.0412 150.861 56.5293C150.442 56.9439 143.604 63.0253 144.023 62.6107C143.185 63.4399 145 62.4725 145.279 62.6107C145.558 62.3342 150.721 57.7732 151.001 57.4968C152.675 55.9764 154.21 54.3179 155.606 52.6593V62.7489C155.885 62.8871 156.164 63.0253 156.304 63.1635V51.83C157.42 50.5861 158.397 49.204 159.374 47.9601V64.8221C159.653 64.9603 159.932 65.0985 160.072 65.0985V47.1308H159.932C161.049 45.4722 162.165 43.9519 163.142 42.2933V66.2042C163.421 66.2042 163.7 66.3424 163.84 66.3424V40.9112C164.956 38.9762 165.933 37.0412 166.91 35.1062V66.7571C167.189 66.7571 167.468 66.7571 167.608 66.8953V33.5859C168.724 31.098 169.701 28.7484 170.678 26.3988V66.8953C170.957 66.8953 171.236 66.8953 171.376 66.8953V24.3256C172.632 20.732 173.609 17.4149 174.446 14.5124V66.4806C174.725 66.4806 175.004 66.3424 175.144 66.3424V11.6099C176.26 7.0489 176.539 4.28464 176.679 4.14642L175.981 3.87Z" fill="#D24681"/>
<path d="M229.71 79.6108H91.6885V143.189H229.71V79.6108Z" fill="white"/>
<path d="M97.5498 79.6108H90.1533V145.539H97.5498V79.6108Z" fill="#B3B0AB"/>
<path d="M97.3542 145.645H125.126L125.126 79.7169H97.3542V145.645Z" fill="#E0DEDC"/>
<path d="M229.989 68.9684H90.1533V80.1638H229.989V68.9684Z" fill="#B3B0AB"/>
<path d="M139.557 78.2287V72.1473C139.557 70.9034 138.859 69.9359 138.022 69.9359H109.831C108.994 69.9359 108.296 70.9034 108.296 72.1473V78.2287H139.557Z" fill="#E0DEDC"/>
<path d="M229.989 74.2205H90.1533V80.8548L229.989 80.993V74.2205Z" fill="#E0DEDC"/>
<path d="M215.057 78.6433H112.901C112.064 78.6433 111.366 77.9523 111.366 77.123C111.366 76.2937 112.064 75.6027 112.901 75.6027H215.057C215.894 75.6027 216.592 76.2937 216.592 77.123C216.592 77.9523 215.894 78.6433 215.057 78.6433Z" fill="white"/>
<path d="M229.989 80.4401H90.1533V84.4483H229.989V80.4401Z" fill="#B3B0AB"/>
<path d="M229.989 140.425H90.1533V143.465H229.989V140.425Z" fill="#78A8DA"/>
<path d="M91.8277 83.4809C92.2131 83.4809 92.5255 83.1715 92.5255 82.7898C92.5255 82.4082 92.2131 82.0988 91.8277 82.0988C91.4423 82.0988 91.1299 82.4082 91.1299 82.7898C91.1299 83.1715 91.4423 83.4809 91.8277 83.4809Z" fill="#B3B0AB"/>
<path d="M94.0611 83.4809C94.4464 83.4809 94.7588 83.1715 94.7588 82.7898C94.7588 82.4082 94.4464 82.0988 94.0611 82.0988C93.6757 82.0988 93.3633 82.4082 93.3633 82.7898C93.3633 83.1715 93.6757 83.4809 94.0611 83.4809Z" fill="#B3B0AB"/>
<path d="M96.2935 83.4809C96.6789 83.4809 96.9913 83.1715 96.9913 82.7898C96.9913 82.4082 96.6789 82.0988 96.2935 82.0988C95.9081 82.0988 95.5957 82.4082 95.5957 82.7898C95.5957 83.1715 95.9081 83.4809 96.2935 83.4809Z" fill="#B3B0AB"/>
<path d="M93.9212 88.7329C94.4608 88.7329 94.8981 88.2998 94.8981 87.7655C94.8981 87.2311 94.4608 86.798 93.9212 86.798C93.3817 86.798 92.9443 87.2311 92.9443 87.7655C92.9443 88.2998 93.3817 88.7329 93.9212 88.7329Z" fill="#7A7775"/>
<path d="M94.8982 92.7411H93.084V94.3997H94.8982V92.7411Z" fill="#7A7775"/>
<path d="M125.042 86.3833H97.4102V90.1151H125.042V86.3833Z" fill="#C7C4C3"/>
<path d="M122.949 92.3265H102.155V94.1232H122.949V92.3265Z" fill="#C7C4C3"/>
<path d="M99.504 94.3997H99.3644C99.2249 94.2615 99.2249 94.1232 99.3644 93.985L99.9227 93.1557L99.3644 92.3265C99.2249 92.1882 99.3644 92.05 99.504 91.9118C99.6435 91.7736 99.7831 91.9118 99.9227 92.05L100.62 93.0175C100.62 93.1557 100.62 93.2939 100.62 93.2939L99.9227 94.2614C99.6435 94.3997 99.504 94.3997 99.504 94.3997Z" fill="#C7C4C3"/>
<path d="M102.434 116.099H102.294C102.155 115.961 102.155 115.823 102.294 115.685L102.852 114.855L102.294 114.026C102.155 113.888 102.294 113.75 102.434 113.611C102.573 113.473 102.713 113.611 102.852 113.75L103.55 114.717C103.55 114.855 103.55 114.993 103.55 114.993L102.713 116.099C102.713 116.099 102.573 116.099 102.434 116.099Z" fill="#C7C4C3"/>
<path d="M117.227 95.92H102.155V97.7168H117.227V95.92Z" fill="#C7C4C3"/>
<path d="M114.157 99.5136H102.155V101.31H114.157V99.5136Z" fill="#C7C4C3"/>
<path d="M120.298 103.245H102.155V105.042H120.298V103.245Z" fill="#C7C4C3"/>
<path d="M117.367 106.839H105.226V108.636H117.367V106.839Z" fill="#C7C4C3"/>
<path d="M98.5264 96.4729V96.3347C98.6659 96.1965 98.8055 96.1965 98.945 96.3347L99.7824 96.8875L100.62 96.3347C100.759 96.1965 100.899 96.3347 101.038 96.4729C101.178 96.6111 101.038 96.7493 100.899 96.8875L99.922 97.5786C99.7824 97.5786 99.6428 97.5786 99.6428 97.5786L98.6659 96.8875C98.5264 96.6111 98.5264 96.4729 98.5264 96.4729Z" fill="#C7C4C3"/>
<path d="M131.881 96.4729V96.3347C132.02 96.1965 132.16 96.1965 132.3 96.3347L133.137 96.8875L133.974 96.3347C134.114 96.1965 134.253 96.3347 134.393 96.4729C134.532 96.6111 134.393 96.7493 134.253 96.8875L133.276 97.5786C133.137 97.5786 132.997 97.5786 132.997 97.5786L132.02 96.8875C131.881 96.6111 131.881 96.4729 131.881 96.4729Z" fill="#A9C8E9"/>
<path d="M131.881 121.766V121.628C132.02 121.489 132.16 121.489 132.3 121.628L133.137 122.181L133.974 121.628C134.114 121.489 134.253 121.628 134.393 121.766C134.532 121.904 134.393 122.042 134.253 122.181L133.276 122.872C133.137 122.872 132.997 122.872 132.997 122.872L132.02 122.181C131.881 122.042 131.881 121.904 131.881 121.766Z" fill="#A9C8E9"/>
<path d="M131.881 132.685V132.547C132.02 132.408 132.16 132.408 132.3 132.547L133.137 133.099L133.974 132.547C134.114 132.408 134.253 132.547 134.393 132.685C134.532 132.823 134.393 132.961 134.253 133.099L133.276 133.79C133.137 133.79 132.997 133.79 132.997 133.79L132.02 133.099C131.881 132.823 131.881 132.823 131.881 132.685Z" fill="#A9C8E9"/>
<path d="M122.949 132.132H102.155V133.929H122.949V132.132Z" fill="#C7C4C3"/>
<path d="M99.504 134.343H99.3644C99.2249 134.205 99.2249 134.067 99.3644 133.929L99.9227 133.099L99.3644 132.27C99.2249 132.132 99.3644 131.994 99.504 131.855C99.6435 131.717 99.7831 131.855 99.9227 131.994L100.62 132.961C100.62 133.099 100.62 133.238 100.62 133.238L99.9227 134.205C99.6435 134.205 99.504 134.343 99.504 134.343Z" fill="#C7C4C3"/>
<path d="M117.227 135.864H102.155V137.66H117.227V135.864Z" fill="#C7C4C3"/>
<path d="M118.902 110.432H102.155V112.229H118.902V110.432Z" fill="#C7C4C3"/>
<path d="M114.576 114.026H105.226V115.823H114.576V114.026Z" fill="#C7C4C3"/>
<path d="M102.434 119.831H102.294C102.155 119.693 102.155 119.554 102.294 119.416L102.852 118.587L102.294 117.758C102.155 117.619 102.294 117.481 102.434 117.343C102.573 117.205 102.713 117.343 102.852 117.481L103.55 118.449C103.55 118.587 103.55 118.725 103.55 118.725L102.852 119.693C102.713 119.693 102.573 119.831 102.434 119.831Z" fill="#C7C4C3"/>
<path d="M117.227 117.62H105.226V119.416H117.227V117.62Z" fill="#C7C4C3"/>
<path d="M102.434 123.424H102.294C102.155 123.286 102.155 123.148 102.294 123.01L102.852 122.181L102.294 121.351C102.155 121.213 102.294 121.075 102.434 120.937C102.573 120.798 102.713 120.937 102.852 121.075L103.55 122.042C103.55 122.181 103.55 122.319 103.55 122.319L102.852 123.286C102.713 123.424 102.573 123.424 102.434 123.424Z" fill="#C7C4C3"/>
<path d="M117.227 121.351H105.226V123.148H117.227V121.351Z" fill="#C7C4C3"/>
<path d="M102.434 127.018H102.294C102.155 126.88 102.155 126.742 102.294 126.603L102.852 125.774L102.294 124.945C102.155 124.807 102.294 124.668 102.434 124.53C102.573 124.392 102.713 124.53 102.852 124.668L103.55 125.636C103.55 125.774 103.55 125.912 103.55 125.912L102.852 126.88C102.713 127.018 102.573 127.018 102.434 127.018Z" fill="#C7C4C3"/>
<path d="M120.996 124.945H105.226V126.742H120.996V124.945Z" fill="#C7C4C3"/>
<path d="M98.5264 110.985V110.847C98.6659 110.709 98.8055 110.709 98.945 110.847L99.7824 111.4L100.62 110.847C100.759 110.709 100.899 110.847 101.038 110.985C101.178 111.124 101.038 111.262 100.899 111.4L99.922 112.091C99.7824 112.091 99.6428 112.091 99.6428 112.091L98.6659 111.4C98.5264 111.123 98.5264 110.985 98.5264 110.985Z" fill="#C7C4C3"/>
<path d="M102.853 108.497C103.392 108.497 103.83 108.064 103.83 107.53C103.83 106.996 103.392 106.562 102.853 106.562C102.313 106.562 101.876 106.996 101.876 107.53C101.876 108.064 102.313 108.497 102.853 108.497Z" fill="#C7C4C3"/>
<path d="M113.598 128.538H102.853V130.335H113.598V128.538Z" fill="#C7C4C3"/>
<path d="M100.619 130.335C101.159 130.335 101.596 129.902 101.596 129.368C101.596 128.833 101.159 128.4 100.619 128.4C100.08 128.4 99.6426 128.833 99.6426 129.368C99.6426 129.902 100.08 130.335 100.619 130.335Z" fill="#C7C4C3"/>
<path d="M129.927 88.7329H128.112V90.5297H129.927V88.7329Z" fill="#E0DEDC"/>
<path d="M129.927 92.3265H128.112V94.1232H129.927V92.3265Z" fill="#E0DEDC"/>
<path d="M129.927 95.92H128.112V97.7168H129.927V95.92Z" fill="#E0DEDC"/>
<path d="M129.927 99.5136H128.112V101.31H129.927V99.5136Z" fill="#E0DEDC"/>
<path d="M129.927 103.245H128.112V105.042H129.927V103.245Z" fill="#E0DEDC"/>
<path d="M129.927 106.839H128.112V108.636H129.927V106.839Z" fill="#E0DEDC"/>
<path d="M129.927 110.432H128.112V112.229H129.927V110.432Z" fill="#E0DEDC"/>
<path d="M129.927 114.026H128.112V115.823H129.927V114.026Z" fill="#E0DEDC"/>
<path d="M129.927 117.62H128.112V119.416H129.927V117.62Z" fill="#E0DEDC"/>
<path d="M129.927 121.351H128.112V123.148H129.927V121.351Z" fill="#E0DEDC"/>
<path d="M129.927 124.945H128.112V126.742H129.927V124.945Z" fill="#E0DEDC"/>
<path d="M129.927 128.538H128.112V130.335H129.927V128.538Z" fill="#E0DEDC"/>
<path d="M129.927 132.132H128.112V133.929H129.927V132.132Z" fill="#E0DEDC"/>
<path d="M129.927 135.864H128.112V137.66H129.927V135.864Z" fill="#E0DEDC"/>
<path d="M198.449 88.7329H136.347V90.5297H198.449V88.7329Z" fill="#E0DEDC"/>
<path d="M159.932 95.92H136.347V97.7168H159.932V95.92Z" fill="#A9C8E9"/>
<path d="M181.842 103.245H136.347V105.042H181.842V103.245Z" fill="#E0DEDC"/>
<path d="M196.775 106.839H136.347V108.636H196.775V106.839Z" fill="#E0DEDC"/>
<path d="M155.466 110.432H136.347V112.229H155.466V110.432Z" fill="#E0DEDC"/>
<path d="M162.583 114.026H136.347V115.823H162.583V114.026Z" fill="#E0DEDC"/>
<path d="M170.817 121.351H136.347V123.148H170.817V121.351Z" fill="#A9C8E9"/>
<path d="M198.449 124.945H136.347V126.742H198.449V124.945Z" fill="#E0DEDC"/>
<path d="M156.582 132.132H136.347V133.929H156.582V132.132Z" fill="#A9C8E9"/>
<path d="M186.029 135.864H136.347V137.66H186.029V135.864Z" fill="#E0DEDC"/>
<path d="M173.329 171.523H146.115L148.348 150.1H171.096L173.329 171.523Z" fill="#615F5C"/>
<path d="M228.035 63.0253H91.2696C87.2224 63.0253 83.873 66.3424 83.873 70.3506V143.742C83.873 147.75 87.2224 151.067 91.2696 151.067H228.035C232.082 151.067 235.432 147.75 235.432 143.742V70.2124C235.432 66.2042 232.082 63.0253 228.035 63.0253ZM228.733 140.425C228.733 142.083 227.337 143.465 225.663 143.465H93.5025C91.8278 143.465 90.4322 142.083 90.4322 140.425V72.1473C90.4322 70.4888 91.8278 69.1067 93.5025 69.1067H225.663C227.337 69.1067 228.733 70.4888 228.733 72.1473V140.425V140.425Z" fill="#615F5C"/>
<path d="M188.261 177.466H131.322C129.648 177.466 128.392 176.084 128.392 174.563C128.392 172.905 129.787 171.661 131.322 171.661H188.261C189.936 171.661 191.192 173.043 191.192 174.563C191.192 176.084 189.797 177.466 188.261 177.466Z" fill="#615F5C"/>
<path d="M139.139 37.0412H58.6143V85.554H139.139V37.0412Z" fill="white"/>
<path d="M137.185 30.1305H57.2188V39.6672H137.185V30.1305Z" fill="#B3B0AB"/>
<path d="M91.1311 38.0087V32.8948C91.1311 31.7891 90.5729 30.9598 89.8751 30.9598H66.0109C65.3131 30.9598 64.7549 31.7891 64.7549 32.8948V38.0087H91.1311Z" fill="#E0DEDC"/>
<path d="M137.045 34.5533H57.2188V40.2201L137.045 40.3583V34.5533Z" fill="#E0DEDC"/>
<path d="M112.762 38.4233H68.5225C67.8247 38.4233 67.127 37.8705 67.127 37.0412C67.127 36.3501 67.6852 35.6591 68.5225 35.6591H112.762C113.46 35.6591 114.158 36.2119 114.158 37.0412C114.158 37.7323 113.46 38.4233 112.762 38.4233Z" fill="white"/>
<path d="M138.162 39.3908H58.4746V43.399H138.162V39.3908Z" fill="#B3B0AB"/>
<path d="M138.859 80.993H58.4746V84.863H138.859V80.993Z" fill="#78A8DA"/>
<path d="M62.8013 42.5697C63.1867 42.5697 63.4991 42.2603 63.4991 41.8786C63.4991 41.497 63.1867 41.1876 62.8013 41.1876C62.4159 41.1876 62.1035 41.497 62.1035 41.8786C62.1035 42.2603 62.4159 42.5697 62.8013 42.5697Z" fill="#B3B0AB"/>
<path d="M65.0337 42.5697C65.4191 42.5697 65.7315 42.2603 65.7315 41.8786C65.7315 41.497 65.4191 41.1876 65.0337 41.1876C64.6483 41.1876 64.3359 41.497 64.3359 41.8786C64.3359 42.2603 64.6483 42.5697 65.0337 42.5697Z" fill="#B3B0AB"/>
<path d="M67.2661 42.5697C67.6515 42.5697 67.9639 42.2603 67.9639 41.8786C67.9639 41.497 67.6515 41.1876 67.2661 41.1876C66.8808 41.1876 66.5684 41.497 66.5684 41.8786C66.5684 42.2603 66.8808 42.5697 67.2661 42.5697Z" fill="#B3B0AB"/>
<path d="M66.4297 53.9032V53.765C66.5692 53.6268 66.7088 53.6268 66.8484 53.765L67.6857 54.3178L68.523 53.765C68.6626 53.6268 68.8022 53.765 68.9417 53.9032C69.0813 54.0414 68.9417 54.1796 68.8022 54.3178L67.8253 55.0089C67.6857 55.0089 67.5461 55.0089 67.5461 55.0089L66.5692 54.3178C66.4297 54.0414 66.4297 53.9032 66.4297 53.9032Z" fill="#A9C8E9"/>
<path d="M66.708 68.4156V68.2774C66.8476 68.1392 66.9871 68.1392 67.1267 68.2774L67.964 68.8302L68.8014 68.2774C68.9409 68.1392 69.0805 68.2774 69.22 68.4156C69.3596 68.5538 69.22 68.692 69.0805 68.8302L68.1036 69.5213C67.964 69.5213 67.8245 69.5213 67.8245 69.5213L66.8476 68.8302C66.708 68.5538 66.708 68.4156 66.708 68.4156Z" fill="#A9C8E9"/>
<path d="M64.4754 46.025H62.6611V47.8218H64.4754V46.025Z" fill="#E0DEDC"/>
<path d="M64.4754 49.7568H62.6611V51.5536H64.4754V49.7568Z" fill="#E0DEDC"/>
<path d="M64.4754 53.3503H62.6611V55.1471H64.4754V53.3503Z" fill="#E0DEDC"/>
<path d="M64.4754 56.9439H62.6611V58.7407H64.4754V56.9439Z" fill="#E0DEDC"/>
<path d="M64.4754 60.5375H62.6611V62.3342H64.4754V60.5375Z" fill="#E0DEDC"/>
<path d="M64.4754 64.2692H62.6611V66.066H64.4754V64.2692Z" fill="#E0DEDC"/>
<path d="M64.4754 67.8627H62.6611V69.6595H64.4754V67.8627Z" fill="#E0DEDC"/>
<path d="M64.4754 71.4563H62.6611V73.2531H64.4754V71.4563Z" fill="#E0DEDC"/>
<path d="M64.4754 75.0498H62.6611V76.8466H64.4754V75.0498Z" fill="#E0DEDC"/>
<path d="M132.998 46.025H70.8955V47.8218H132.998V46.025Z" fill="#E0DEDC"/>
<path d="M94.4806 53.3503H70.8955V55.1471H94.4806V53.3503Z" fill="#A9C8E9"/>
<path d="M116.391 60.5375H70.8955V62.3342H116.391V60.5375Z" fill="#E0DEDC"/>
<path d="M131.324 64.2692H70.8955V66.066H131.324V64.2692Z" fill="#E0DEDC"/>
<path d="M90.0148 67.8627H70.8955V69.6595H90.0148V67.8627Z" fill="#E0DEDC"/>
<path d="M97.1322 75.4645H70.8955V77.2612H97.1322V75.4645Z" fill="#E0DEDC"/>
<path d="M138.022 25.1548L57.7767 24.8784C55.6834 24.8784 54.1483 26.537 54.1483 28.472L53.8691 87.3508C53.8691 88.8712 55.1252 89.9769 56.5207 89.9769L138.72 90.2533C140.255 90.2533 141.371 89.0094 141.371 87.6272L141.65 28.7484C141.65 26.6752 140.115 25.1548 138.022 25.1548ZM135.649 84.7248L60.0096 84.4483L60.1492 30.2687L135.789 30.4069L135.649 84.7248Z" fill="#615F5C"/>
<path d="M229.292 146.506C229.85 146.368 230.408 146.368 230.827 146.368C221.477 140.839 215.615 144.848 215.615 144.848C215.615 144.848 215.615 153.14 219.104 157.149L220.779 155.628L227.757 154.661L231.943 157.149L229.292 146.506Z" fill="#C7C4C3"/>
<path d="M232.501 157.287C232.501 157.287 230.269 146.368 230.827 146.368C227.757 144.571 225.105 143.742 222.872 143.465C223.57 146.368 225.105 150.791 227.896 154.522L232.362 157.149" fill="#7A7775"/>
<path d="M242.968 134.896C242.968 134.896 235.293 129.229 222.872 130.75C224.268 146.921 232.083 157.287 232.083 157.287C232.083 157.287 236.688 141.392 242.968 134.896Z" fill="#F9F8F7"/>
<path d="M260.134 163.645H213.383C213.662 164.059 214.081 164.474 214.36 164.75H260.134C260.413 164.75 260.693 164.474 260.693 164.197C260.693 163.921 260.413 163.645 260.134 163.645Z" fill="#E0DEDC"/>
</g>
<defs>
<clipPath id="clip0">
<rect width="296" height="179.677" fill="white"/>
</clipPath>
</defs>
</svg>
