<svg width="113" height="24" viewBox="0 0 113 24" fill="none" xmlns="http://www.w3.org/2000/svg">
<g clip-path="url(#clip0)">
<path d="M46.9298 4.79766V19.1977H44.4247V7.91066H44.3846L39.906 19.1977H38.2455L33.657 7.91066H33.6266V19.1977H31.3125V4.79766H34.9046L39.0505 15.4723H39.111L43.4867 4.79766H46.9298ZM49.0252 5.89233C49.0214 5.70263 49.0585 5.51433 49.134 5.34019C49.2095 5.16605 49.3216 5.01014 49.4628 4.883C49.7431 4.61645 50.1171 4.47042 50.5042 4.47633C50.701 4.47018 50.897 4.50394 51.0803 4.57556C51.2636 4.64718 51.4305 4.75517 51.5708 4.893C51.7065 5.02162 51.8141 5.17684 51.8869 5.34892C51.9597 5.521 51.996 5.70623 51.9937 5.893C51.997 6.08008 51.96 6.26568 51.8851 6.4372C51.8101 6.60872 51.6991 6.76213 51.5594 6.887C51.2732 7.15324 50.8937 7.29685 50.5026 7.287C50.3091 7.29186 50.1166 7.25846 49.9361 7.18873C49.7556 7.11899 49.5908 7.01429 49.4511 6.88066C49.3143 6.7552 49.2056 6.60228 49.1322 6.43195C49.0588 6.26162 49.0223 6.07772 49.0252 5.89233ZM51.7117 8.87466V19.1977H49.2767V8.87466H51.7117ZM59.098 17.4303C59.5091 17.4205 59.9149 17.3354 60.2952 17.1793C60.7263 17.0149 61.1326 16.7919 61.5027 16.5167V18.776C61.0885 19.0067 60.6428 19.1758 60.1796 19.278C59.6462 19.3962 59.101 19.4535 58.5546 19.4487C57.8719 19.4799 57.1902 19.3689 56.5528 19.1228C55.9155 18.8766 55.3365 18.5007 54.8528 18.0189C54.369 17.5372 53.9912 16.9601 53.7432 16.3246C53.4953 15.6891 53.3827 15.009 53.4126 14.3277C53.3559 12.8244 53.8779 11.3565 54.8716 10.2253C55.8443 9.15066 57.2229 8.61344 59.0075 8.61366C59.4742 8.61506 59.9389 8.67407 60.3911 8.78933C60.7775 8.87677 61.1511 9.01345 61.5027 9.196V11.526C61.1487 11.2633 60.7613 11.0487 60.3506 10.888C59.9672 10.7393 59.5595 10.6628 59.1481 10.6623C58.7166 10.6449 58.2862 10.7191 57.8855 10.88C57.4848 11.0409 57.1229 11.2848 56.8237 11.5957C56.2078 12.287 55.8896 13.1926 55.9382 14.1163C55.9112 14.5589 55.9726 15.0025 56.1185 15.4213C56.2645 15.8401 56.4923 16.2259 56.7886 16.5563C57.0919 16.8537 57.4538 17.085 57.8513 17.2354C58.2489 17.3859 58.6734 17.4523 59.098 17.4303ZM68.4357 8.704C68.611 8.70257 68.7861 8.71606 68.9591 8.74433C69.0928 8.76546 69.2242 8.79893 69.3516 8.84433V11.3043C69.1794 11.1888 68.9913 11.099 68.7931 11.0377C68.5051 10.9477 68.2043 10.9054 67.9026 10.9123C67.6087 10.9119 67.3187 10.9798 67.0557 11.1108C66.7927 11.2417 66.5639 11.432 66.3875 11.6667C65.9751 12.1687 65.7689 12.9419 65.7689 13.9863V19.198H63.3335V8.87466H65.7689V10.5013H65.8089C66.0056 9.97137 66.3558 9.51177 66.815 9.181C67.2912 8.85504 67.8585 8.68805 68.4357 8.704ZM69.4835 14.1867C69.4835 12.4796 69.9665 11.1273 70.9326 10.13C71.8986 9.13266 73.2402 8.63389 74.9576 8.63366C76.5742 8.63366 77.8372 9.114 78.7464 10.0747C79.6556 11.0353 80.1101 12.3324 80.1099 13.966C80.1099 15.6396 79.6269 16.9718 78.6609 17.9627C77.6949 18.9536 76.3799 19.4489 74.7161 19.4487C73.1127 19.4487 71.8399 18.9784 70.8975 18.038C69.9551 17.0976 69.4838 15.8138 69.4835 14.1867ZM72.0195 14.1067C72.0195 15.1847 72.2644 16.0081 72.7543 16.577C73.0184 16.8677 73.3447 17.0954 73.709 17.2431C74.0733 17.3908 74.4662 17.4548 74.8587 17.4303C75.2391 17.4547 75.6199 17.3903 75.971 17.2422C76.3221 17.0941 76.6337 16.8663 76.8812 16.577C77.3442 16.0077 77.5756 15.1641 77.5756 14.0463C77.5756 12.9352 77.3358 12.0967 76.8562 11.5307C76.6064 11.2457 76.295 11.0213 75.9454 10.8743C75.5959 10.7273 75.2174 10.6616 74.8386 10.6823C74.4471 10.6612 74.056 10.7303 73.6956 10.8844C73.3353 11.0386 73.0153 11.2735 72.7607 11.571C72.2661 12.1634 72.019 13.0087 72.0195 14.1067ZM83.7321 11.586C83.7239 11.7384 83.7494 11.8907 83.8068 12.0322C83.8642 12.1737 83.952 12.3008 84.0641 12.4047C84.5149 12.7239 85.0101 12.9758 85.5338 13.1523C86.3144 13.4136 87.0179 13.8639 87.5814 14.463C87.9789 14.9632 88.1873 15.5871 88.1699 16.2253C88.1831 16.6763 88.0881 17.1239 87.893 17.5308C87.6978 17.9378 87.4081 18.2923 87.0479 18.565C86.3002 19.1543 85.2888 19.4489 84.014 19.4487C83.5355 19.4435 83.0586 19.3914 82.5904 19.293C82.1361 19.2093 81.6923 19.0764 81.267 18.8967V16.5067C81.7081 16.8141 82.1887 17.0607 82.6959 17.24C83.14 17.4085 83.6095 17.5004 84.0845 17.5117C84.5035 17.5391 84.9226 17.4596 85.3023 17.2807C85.433 17.2007 85.5389 17.086 85.6082 16.9494C85.6774 16.8129 85.7073 16.6598 85.6945 16.5073C85.6956 16.3443 85.6595 16.1832 85.589 16.0361C85.5184 15.8891 85.4152 15.76 85.2873 15.6587C84.8137 15.319 84.2933 15.0496 83.7424 14.8587C83.0116 14.5982 82.3553 14.1641 81.8305 13.5937C81.4404 13.0811 81.2411 12.4491 81.267 11.806C81.2591 11.3633 81.3557 10.925 81.5489 10.5264C81.742 10.1278 82.0264 9.7801 82.3789 9.51133C83.2049 8.88401 84.2252 8.56554 85.2622 8.61133C85.6708 8.61575 86.0782 8.65602 86.4798 8.73166C86.8656 8.79442 87.2435 8.89893 87.6068 9.04333V11.3527C87.2547 11.1239 86.8763 10.9385 86.4798 10.8003C86.0704 10.6499 85.638 10.5718 85.2018 10.5693C84.8218 10.5474 84.4443 10.6421 84.1199 10.8407C83.9967 10.9214 83.8964 11.0323 83.8285 11.1628C83.7606 11.2933 83.7274 11.439 83.7321 11.586ZM89.2161 14.186C89.2161 12.4789 89.6991 11.1267 90.6651 10.1293C91.6311 9.132 92.9728 8.63322 94.6901 8.633C96.3068 8.633 97.5696 9.11333 98.4786 10.074C99.3876 11.0347 99.8421 12.3318 99.8421 13.9653C99.8421 15.6389 99.3591 16.9711 98.3931 17.962C97.4271 18.9529 96.1123 19.4482 94.4486 19.448C92.8453 19.448 91.5723 18.9778 90.6297 18.0373C89.6871 17.0969 89.2159 15.8133 89.2161 14.1867V14.186ZM91.752 14.106C91.752 15.184 91.9969 16.0074 92.4869 16.5763C92.751 16.867 93.0773 17.0947 93.4415 17.2424C93.8058 17.3902 94.1988 17.4541 94.5912 17.4297C94.9716 17.454 95.3524 17.3896 95.7035 17.2415C96.0546 17.0934 96.3662 16.8656 96.6137 16.5763C97.0762 16.007 97.3076 15.1634 97.3078 14.0457C97.3078 12.9346 97.068 12.096 96.5884 11.53C96.3387 11.2451 96.0273 11.0206 95.6778 10.8736C95.3283 10.7266 94.9499 10.661 94.5712 10.6817C94.1796 10.6605 93.7885 10.7297 93.428 10.8838C93.0676 11.0379 92.7476 11.2728 92.4929 11.5703C91.9987 12.1632 91.7518 13.0087 91.752 14.1067V14.106ZM107.921 10.8623H104.294V19.1957H101.828V10.8623H100.097V8.87466H101.828V7.43866C101.81 6.94509 101.895 6.45327 102.078 5.99429C102.261 5.5353 102.537 5.1191 102.889 4.772C103.249 4.425 103.676 4.1541 104.144 3.97552C104.612 3.79694 105.111 3.71434 105.611 3.73266C105.873 3.73064 106.136 3.74579 106.396 3.778C106.601 3.80295 106.804 3.84829 107 3.91333V6.01333C106.864 5.94389 106.723 5.88677 106.577 5.84266C106.353 5.77251 106.118 5.73875 105.883 5.74266C105.663 5.72919 105.444 5.76505 105.24 5.84761C105.036 5.93016 104.853 6.0573 104.705 6.21966C104.403 6.62516 104.256 7.12592 104.293 7.63033V8.87566H107.919V6.555L110.365 5.812V8.87466H112.83V10.863H110.365V15.693C110.319 16.1683 110.442 16.6445 110.712 17.0387C110.855 17.1788 111.026 17.2864 111.215 17.354C111.403 17.4216 111.604 17.4477 111.804 17.4303C111.978 17.4243 112.149 17.3905 112.312 17.3303C112.494 17.271 112.668 17.1901 112.83 17.0893V19.0977C112.586 19.2139 112.327 19.2951 112.06 19.3387C111.711 19.4113 111.356 19.4482 110.999 19.449C109.973 19.449 109.203 19.1763 108.689 18.631C108.176 18.0857 107.919 17.2634 107.919 16.1643L107.921 10.8623Z" fill="white"/>
<path d="M11.4775 -0.00164795H0.0478516V11.4044H11.4775V-0.00164795Z" fill="#F25022"/>
<path d="M24.0976 -0.00164795H12.668V11.4044H24.0976V-0.00164795Z" fill="#7FBA00"/>
<path d="M11.4775 12.5913H0.0478516V23.9973H11.4775V12.5913Z" fill="#00A4EF"/>
<path d="M24.0976 12.5913H12.668V23.9973H24.0976V12.5913Z" fill="#FFB900"/>
</g>
<defs>
<clipPath id="clip0">
<rect width="113" height="24" fill="white"/>
</clipPath>
</defs>
</svg>