<svg width="141" height="260" viewBox="0 0 141 260" fill="none" xmlns="http://www.w3.org/2000/svg">
<g clip-path="url(#clip0)">
<path d="M18.59 248.8L59.41 54.9695L83.2 62.2495L136.89 248.41L18.59 248.8Z" fill="#E9E8E7"/>
<path d="M101.01 158.97C98.54 156.5 94.51 156.76 92.3 159.1C90.87 160.53 90.35 162.48 90.61 164.17C90.74 165.73 89.05 167.16 88.01 166.12C87.88 165.99 87.62 165.99 87.62 165.73L74.75 153.51L60.97 168.2C59.93 169.24 61.49 171.06 62.92 170.8C65.13 170.67 67.47 171.45 68.9 173.66C70.33 175.74 70.33 178.34 68.9 180.42C66.69 183.8 62.14 184.319 59.28 181.589C57.72 180.159 57.2 178.079 57.33 176.389C57.46 174.699 55.77 173.789 54.73 174.83L40.95 189.389L74.75 221.37L89.44 205.77C90.35 204.73 88.92 203.17 87.36 203.17C85.67 203.3 83.72 202.78 82.29 201.479C79.82 199.01 79.69 195.24 82.16 192.77C84.63 190.3 88.4 190.169 90.87 192.639C92.43 194.069 92.95 196.019 92.82 197.839C92.69 199.529 94.38 200.44 95.29 199.529L108.42 185.75L94.25 172.62C94.25 172.62 94.25 172.49 94.12 172.23C93.08 171.19 93.99 169.37 95.68 169.63C97.63 169.76 99.58 169.24 100.88 167.68C103.61 165.21 103.48 161.18 101.01 158.97Z" fill="#A7CBF6"/>
<path d="M77.74 252.96C110.37 252.96 136.89 251.009 136.89 248.54C136.89 246.07 110.5 244.12 77.74 244.12C44.98 244.12 18.72 246.07 18.72 248.54C18.72 251.009 45.11 252.96 77.74 252.96Z" fill="#DEDDDC"/>
<path d="M61.23 80.3195C61.88 83.4395 66.69 85.7795 72.28 85.5195C77.87 85.3895 82.42 82.6595 82.94 79.4095L61.23 80.3195Z" fill="white"/>
<path d="M64.35 98.2595C64.87 100.73 68.51 102.42 72.93 102.29C77.35 102.16 80.86 100.21 81.12 97.6095L64.35 98.2595Z" fill="white"/>
<path d="M67.34 116.33C67.73 118.02 70.33 119.32 73.32 119.19C76.31 119.06 78.78 117.63 79.04 115.81L67.34 116.33Z" fill="white"/>
<path d="M70.46 134.53C70.59 135.57 72.15 136.22 73.84 136.09C75.53 136.09 76.96 135.18 77.22 134.14L70.46 134.53Z" fill="white"/>
<path d="M97.019 35.6385C97.123 34.9235 97.123 34.3125 97.123 33.5065C97.318 18.8295 85.501 6.71351 70.85 6.50551C56.186 6.20651 44.07 18.1145 43.862 32.7785C43.862 33.4935 43.862 34.1045 43.966 34.9105L97.019 35.6385Z" fill="#FFD590"/>
<path d="M90.142 31.8685C90.142 30.8545 89.323 30.1395 88.309 30.1395L78.689 30.1915C78.312 30.1655 78.078 30.1525 78.078 30.1525V27.1625L63.921 27.1885L63.973 30.1915L53.027 30.1395C52.013 30.1395 51.194 30.8545 51.194 31.8685V34.8195H90.142V31.8685Z" fill="#F7B548"/>
<path d="M141.076 54.3715C133.64 49.8865 110.669 42.1515 103.532 39.9155H37.336C30.212 42.0475 7.16299 49.8865 -0.169006 54.3715C-0.884006 55.1775 -1.54701 57.2575 -0.234006 57.8425H141.206C142.402 57.1145 142.155 55.4115 141.076 54.3715Z" fill="#A7A4A0"/>
<path d="M29.393 52.7465C31.122 52.7465 32.656 51.3165 32.656 49.4835C32.656 47.7545 31.226 46.2205 29.393 46.2205C27.664 46.2205 26.13 47.6505 26.13 49.4835C26.143 51.3165 27.664 52.7465 29.393 52.7465Z" fill="#B5D4F5"/>
<path d="M57.2 52.7465C58.929 52.7465 60.463 51.3165 60.463 49.4835C60.463 47.7545 59.033 46.2205 57.2 46.2205C55.471 46.2205 53.937 47.6505 53.937 49.4835C53.937 51.3165 55.367 52.7465 57.2 52.7465Z" fill="#B5D4F5"/>
<path d="M84.89 52.7465C86.619 52.7465 88.153 51.3165 88.153 49.4835C88.153 47.7545 86.723 46.2205 84.89 46.2205C83.161 46.2205 81.627 47.6505 81.627 49.4835C81.744 51.3165 83.161 52.7465 84.89 52.7465Z" fill="#B5D4F5"/>
<path d="M112.593 52.7465C114.322 52.7465 115.856 51.3165 115.856 49.4835C115.856 47.7545 114.426 46.2205 112.593 46.2205C110.864 46.2205 109.33 47.6505 109.33 49.4835C109.33 51.3165 110.76 52.7465 112.593 52.7465Z" fill="#B5D4F5"/>
<path d="M103.428 40.0195H37.245L40.3 35.3785C40.872 34.5205 41.821 34.0135 42.848 34.0135H97.812C98.839 34.0135 99.801 34.5335 100.36 35.3785L103.428 40.0195Z" fill="#605D5A"/>
<path d="M27.664 63.6405C30.108 69.0355 35.607 72.8055 41.821 72.8055C48.139 72.8055 53.534 69.1395 55.978 63.6405H27.664Z" fill="#E86E58"/>
<path d="M84.89 63.6405C87.334 69.0355 92.833 72.8055 99.047 72.8055C105.365 72.8055 110.76 69.1395 113.204 63.6405H84.89Z" fill="#E86E58"/>
<path d="M56.277 63.6405C58.721 69.0355 64.22 72.8055 70.434 72.8055C76.752 72.8055 82.147 69.1395 84.591 63.6405H56.277Z" fill="#E86E58"/>
<path d="M0.363998 58.9215L27.222 66.2405C27.586 66.3445 27.963 66.3965 28.353 66.3965H112.736C113.113 66.3965 113.503 66.3445 113.867 66.2405L140.738 58.8695L0.363998 58.9215Z" fill="#605D5A"/>
<path d="M139.685 59.0515H1.222C-0.130003 59.0515 -1.3 57.8815 -1.3 56.5035C-1.3 55.1255 -0.130003 53.9425 1.222 53.9425H139.685C141.05 53.9425 142.207 55.1255 142.207 56.5035C142.207 57.8815 141.232 59.0515 139.685 59.0515Z" fill="#F7B548"/>
<path d="M78.507 24.2245C78.364 23.4185 77.662 22.6385 77.662 22.6385C77.662 22.6385 77.987 22.7165 78.377 22.7555C77.753 21.9755 76.726 21.3905 76.726 21.3905C76.726 21.3905 77.324 21.4685 78.143 21.6635C77.818 21.2345 77.337 20.8575 76.973 20.5975C76.791 19.4925 76.336 18.7125 76.336 18.7125C76.336 18.7125 76.57 18.8165 76.882 18.9335C76.544 17.8155 75.556 16.9315 75.556 16.9315C75.556 16.9315 75.894 16.9445 76.349 17.0615C75.855 16.1125 74.399 15.2415 74.399 15.2415C74.399 15.2415 74.893 15.2545 75.491 15.3325C74.776 14.5655 73.32 14.1235 73.32 14.1235C73.32 14.1235 73.619 13.9545 74.217 13.8765C73.515 13.4605 71.968 13.5255 71.968 13.5255L72.631 13.0965C72.631 13.0965 71.435 12.8885 70.772 13.3305C70.772 13.3305 70.759 13.3435 70.733 13.3565C70.72 13.3435 70.707 13.3305 70.707 13.3305C70.044 12.8885 68.848 13.0965 68.848 13.0965L69.511 13.5255C69.511 13.5255 67.977 13.4605 67.262 13.8765C67.86 13.9545 68.159 14.1235 68.159 14.1235C68.159 14.1235 66.742 14.5655 66.04 15.3195C66.625 15.2415 67.132 15.2285 67.132 15.2285C67.132 15.2285 65.676 16.0995 65.182 17.0485C65.637 16.9315 65.975 16.9185 65.975 16.9185C65.975 16.9185 64.987 17.8155 64.649 18.9205C64.974 18.8035 65.195 18.6995 65.195 18.6995C65.195 18.6995 64.74 19.4925 64.558 20.5845C64.194 20.8445 63.713 21.2215 63.388 21.6505C64.207 21.4555 64.805 21.3775 64.805 21.3775C64.805 21.3775 63.778 21.9625 63.154 22.7425C63.544 22.7035 63.869 22.6255 63.869 22.6255C63.869 22.6255 63.167 23.4055 63.024 24.2115C63.31 24.0555 63.713 23.8475 63.713 23.8475C63.713 23.8475 63.284 25.1995 63.349 25.7715C63.414 26.5905 63.804 28.7875 64.311 29.4375C64.493 29.4895 77.064 29.4895 77.246 29.4375C77.753 28.7875 78.195 26.5515 78.208 25.7715C78.273 25.1995 77.844 23.8475 77.844 23.8475C77.844 23.8475 78.221 24.0685 78.507 24.2245Z" fill="#F7B548"/>
<path d="M66.69 19.7785C66.534 19.8695 66.404 20.1035 66.404 20.4415C66.404 20.7795 66.534 21.0005 66.69 21.0135C66.859 21.0265 66.742 21.1955 66.469 21.1955C66.053 21.1955 65.715 20.8575 65.715 20.4285C65.715 19.9995 66.053 19.6615 66.469 19.6615C66.677 19.6485 66.794 19.7265 66.69 19.7785Z" fill="#FFD590"/>
<path d="M74.867 19.7785C75.023 19.8695 75.153 20.1035 75.153 20.4415C75.153 20.7795 75.023 21.0005 74.867 21.0135C74.698 21.0265 74.815 21.1955 75.088 21.1955C75.504 21.1955 75.842 20.8575 75.842 20.4285C75.842 19.9995 75.504 19.6615 75.088 19.6615C74.88 19.6485 74.763 19.7265 74.867 19.7785Z" fill="#FFD590"/>
<path d="M76.401 23.7565C76.401 23.7565 76.258 21.8975 74.36 21.4165C74.347 21.4035 74.334 21.4035 74.321 21.3905C74.269 20.3245 74.23 19.4405 73.879 18.2185C73.424 16.6195 72.306 16.2165 70.746 17.1135C69.394 16.0865 67.99 16.6975 67.639 18.3355C67.535 18.8295 67.314 20.3245 67.184 21.4295L67.171 21.4425C65.117 21.8065 65.169 23.7565 65.169 23.7565L65.741 23.3275C65.741 23.3275 65.403 24.3545 65.637 25.1345C65.832 24.9265 66.053 24.6795 66.053 24.6795C66.053 24.6795 66.378 25.5115 67.106 25.9275C67.119 25.5895 67.158 25.2905 67.184 25.1605C68.029 26.1225 69.329 26.8895 70.785 26.8895C72.241 26.8895 73.541 26.1225 74.386 25.1605C74.412 25.2775 74.451 25.5895 74.464 25.9275C75.205 25.4985 75.517 24.6795 75.517 24.6795C75.517 24.6795 75.738 24.9395 75.933 25.1345C76.167 24.3675 75.829 23.3275 75.829 23.3275L76.401 23.7565Z" fill="#FFD590"/>
<path d="M69.5425 20.3768C69.7938 20.375 69.9958 20.1465 69.9938 19.8665C69.9918 19.5865 69.7864 19.361 69.5352 19.3628C69.2839 19.3646 69.0818 19.5931 69.0838 19.8731C69.0858 20.1531 69.2912 20.3786 69.5425 20.3768Z" fill="#F7B548"/>
<path d="M72.0515 20.3769C72.3028 20.3751 72.5048 20.1466 72.5028 19.8666C72.5008 19.5866 72.2954 19.3611 72.0442 19.3629C71.7929 19.3647 71.5908 19.5932 71.5928 19.8732C71.5948 20.1532 71.8002 20.3787 72.0515 20.3769Z" fill="#F7B548"/>
<path d="M73.307 24.1075C73.307 24.5495 72.176 24.9005 70.798 24.9005C69.407 24.9005 68.289 24.5495 68.289 24.1075C68.289 23.6655 69.42 23.7175 70.798 23.7175C72.176 23.7175 73.307 23.6785 73.307 24.1075Z" fill="#F7B548"/>
<path d="M69.238 24.1985L69.225 24.7315C69.472 24.7965 69.758 24.8485 70.07 24.8745L69.563 24.1205C69.433 23.9385 69.225 24.0555 69.238 24.1985Z" fill="#FFD590"/>
<path d="M72.072 24.1205L71.565 24.8615C71.877 24.8355 72.163 24.7835 72.397 24.7185L72.384 24.1985C72.384 24.0555 72.189 23.9385 72.072 24.1205Z" fill="#FFD590"/>
<path d="M70.772 21.3385C69.238 21.3515 69.29 22.0665 69.589 22.5085C69.797 22.8075 70.2 22.7035 69.953 22.3655C69.823 22.1965 70.044 22.0275 70.239 22.1835C70.434 22.3395 70.551 22.4825 70.759 22.4695C70.967 22.4695 71.084 22.3265 71.279 22.1835C71.487 22.0275 71.695 22.1965 71.565 22.3655C71.318 22.7035 71.721 22.7945 71.929 22.5085C72.254 22.0665 72.306 21.3515 70.772 21.3385Z" fill="#F7B548"/>
<path d="M58.305 30.3085H65.78C67.6 25.9665 66.118 24.6405 65.247 24.7575C62.348 25.1735 59.111 27.5525 59.111 27.5525C59.774 27.4615 60.138 27.5135 60.138 27.5135C60.138 27.5135 58.682 28.5795 58.331 29.2815C58.773 29.1125 59.085 29.0865 59.085 29.0865C59.085 29.0865 58.656 29.6845 58.305 30.3085Z" fill="#F7B548"/>
<path d="M82.797 30.3085C82.446 29.6845 82.004 29.0865 82.004 29.0865C82.004 29.0865 82.316 29.1125 82.758 29.2815C82.407 28.5795 80.951 27.5135 80.951 27.5135C80.951 27.5135 81.315 27.4615 81.978 27.5525C81.978 27.5525 78.741 25.1735 75.842 24.7575C74.971 24.6275 73.489 25.9665 75.309 30.3085H82.797Z" fill="#F7B548"/>
</g>
<defs>
<clipPath id="clip0">
<rect width="141" height="260" fill="white"/>
</clipPath>
</defs>
</svg>
